#!OML:ASF E:\Steps\Project 1\Capture day 1\Session 2\Subject.ASF
:FULLY-SPECIFIED
:DEGREES
946
root 9.29659 22.6199 -21.2578 -155.776 -1.20763 178.764
lowerback -29.199 -1.22832 -6.01988
upperback -1.73688 -0.31457 -0.339027
thorax 13.47 -0.790106 2.71586
lowerneck -3.36115 -3.56567 0.988445
upperneck 5.51702 -4.97836 1.45961
head 2.3242 -2.4456 0.141573
rclavicle 4.42296e-015 -1.23246e-014
rhumerus -38.4253 -16.8803 -78.6326
rradius 36.1862
rwrist -4.06077
rhand -5.0717 -54.2906
rfingers 7.12502
rthumb 20.7245 -83.204
lclavicle 4.42296e-015 -1.23246e-014
lhumerus -29.7312 1.03336 82.2078
lradius 25.5876
lwrist -2.62507
lhand -20.9597 -13.6887
lfingers 7.12502
lthumb 5.41329 16.2222
rfemur -20.2679 6.5166 19.7392
rtibia 5.74261
rfoot -18.5691 -5.35764
rtoes -32.3482
lfemur -21.0259 -11.2554 -19.434
ltibia 10.249
lfoot -10.4769 1.00014
ltoes -26.6934
947
root 9.29608 22.6218 -21.255 -155.819 -1.08723 178.536
lowerback -28.9363 -1.28871 -6.33807
upperback -1.76513 -0.30186 -0.384662
thorax 13.3133 -0.796228 2.84712
lowerneck -3.52957 -3.55205 0.967567
upperneck 5.41265 -4.95882 1.53231
head 2.32304 -2.43244 0.166266
rclavicle -9.14409e-015 1.59028e-014
rhumerus -38.3194 -16.8332 -78.7001
rradius 35.8707
rwrist -4.51145
rhand -6.13066 -53.9342
rfingers 7.12502
rthumb 19.7067 -82.9552
lclavicle -9.14409e-015 1.59028e-014
lhumerus -29.7323 0.993103 82.2316
lradius 25.755
lwrist -2.34845
lhand -21.1138 -14.0945
lfingers 7.12502
lthumb 5.26446 15.8201
rfemur -20.2577 6.70575 19.3828
rtibia 5.75159
rfoot -18.5461 -5.52357
rtoes -32.2094
lfemur -20.9046 -11.1106 -19.7399
ltibia 10.1181
lfoot -10.4397 0.901931
ltoes -27.0431
948
root 9.29282 22.619 -21.2676 -155.699 -1.20608 178.656
lowerback -29.2488 -1.2571 -6.1814
upperback -1.69037 -0.285143 -0.370714
thorax 13.5414 -0.786696 2.77965
lowerneck -3.67149 -3.53099 0.858484
upperneck 5.22509 -4.92443 1.67359
head 2.29393 -2.4122 0.229365
rclavicle 2.18663e-015 1.98785e-015
rhumerus -38.1662 -16.958 -78.7128
rradius 35.7574
rwrist -4.49989
rhand -6.34 -54.1163
rfingers 7.12502
rthumb 19.5055 -83.1579
lclavicle 2.18663e-015 1.98785e-015
lhumerus -29.5682 0.815024 82.2959
lradius 25.8789
lwrist -2.07855
lhand -21.1015 -14.25
lfingers 7.12502
lthumb 5.27635 15.6643
rfemur -20.2726 6.55408 19.5715
rtibia 5.66879
rfoot -18.5752 -5.4653
rtoes -32.614
lfemur -20.911 -10.9065 -19.6278
ltibia 9.96736
lfoot -10.446 0.670213
ltoes -27.0911
949
root 9.29155 22.6191 -21.2662 -155.75 -1.08717 178.56
lowerback -29.0268 -1.21218 -6.30546
upperback -1.74969 -0.200737 -0.424392
thorax 13.3626 -0.749968 2.82354
lowerneck -3.68522 -3.49718 0.762049
upperneck 4.98394 -4.87058 1.80104
head 2.22293 -2.3843 0.289701
rclavicle -5.31749e-015 3.45885e-014
rhumerus -38.2306 -17.0933 -78.6539
rradius 35.6616
rwrist -4.44112
rhand -6.57239 -54.0721
rfingers 7.12502
rthumb 19.282 -83.1362
lclavicle -5.31749e-015 3.45885e-014
lhumerus -29.553 0.744061 82.3047
lradius 25.9624
lwrist -2.05419
lhand -20.8573 -13.7277
lfingers 7.12502
lthumb 5.51215 16.1806
rfemur -20.2937 6.66259 19.4064
rtibia 5.77389
rfoot -18.604 -5.54426
rtoes -32.9024
lfemur -20.8181 -10.8687 -19.7554
ltibia 9.87843
lfoot -10.4616 0.711086
ltoes -26.9572
950
root 9.29021 22.6198 -21.2754 -155.531 -1.07754 178.438
lowerback -29.2972 -1.25844 -6.45934
upperback -1.83951 -0.218584 -0.462236
thorax 13.3799 -0.776792 2.85255
lowerneck -3.42308 -3.05769 0.442975
upperneck 5.29558 -4.28544 1.91727
head 2.28566 -2.09826 0.399872
rclavicle -3.97569e-015 1.82882e-014
rhumerus -38.3364 -17.1648 -78.5893
rradius 35.5362
rwrist -4.31348
rhand -6.49792 -54.2856
rfingers 7.12502
rthumb 19.3536 -83.3425
lclavicle -3.97569e-015 1.82882e-014
lhumerus -29.6335 1.01509 82.1792
lradius 25.959
lwrist -2.55754
lhand -20.5595 -13.2467
lfingers 7.12502
lthumb 5.79962 16.6539
rfemur -20.5453 6.61589 19.2348
rtibia 5.86883
rfoot -18.6533 -5.54218
rtoes -32.5085
lfemur -20.9732 -10.8465 -19.8736
ltibia 9.78705
lfoot -10.4507 0.640148
ltoes -27.4257
951
root 9.28995 22.6196 -21.2806 -155.295 -0.95236 178.04
lowerback -29.5655 -1.34002 -6.93168
upperback -1.82298 -0.153205 -0.525052
thorax 13.5055 -0.783422 3.05884
lowerneck -3.72198 -3.52074 0.362287
upperneck 4.81771 -4.89498 2.18096
head 2.19781 -2.39437 0.476583
rclavicle -1.46604e-014 3.93594e-014
rhumerus -38.2097 -17.281 -78.4446
rradius 35.479
rwrist -3.91173
rhand -5.76961 -55.0033
rfingers 7.12502
rthumb 20.0538 -83.9884
lclavicle -1.46604e-014 3.93594e-014
lhumerus -29.5065 1.23145 82.2168
lradius 25.9476
lwrist -3.02654
lhand -20.3283 -12.9659
lfingers 7.12502
lthumb 6.02291 16.9285
rfemur -20.8664 6.71514 18.657
rtibia 5.97443
rfoot -18.6685 -5.78299
rtoes -33.0286
lfemur -21.1649 -10.8429 -20.3279
ltibia 9.72645
lfoot -10.3866 0.558267
ltoes -27.2078
